<svg width="16" height="19" viewBox="0 0 16 19" fill="none" xmlns="http://www.w3.org/2000/svg">
<path fill-rule="evenodd" clip-rule="evenodd" d="M8.97405 18.5415C11.0898 17.0979 15.9167 13.3051 15.9167 8.75016C15.9167 4.37791 12.3723 0.833496 8.00001 0.833496C3.62776 0.833496 0.0833435 4.37791 0.0833435 8.75016C0.0833435 13.3051 4.91026 17.0979 7.02597 18.5415C7.6176 18.9452 8.38242 18.9452 8.97405 18.5415ZM8.00001 11.2502C9.38072 11.2502 10.5 10.1309 10.5 8.75016C10.5 7.36945 9.38072 6.25016 8.00001 6.25016C6.6193 6.25016 5.50001 7.36945 5.50001 8.75016C5.50001 10.1309 6.6193 11.2502 8.00001 11.2502Z" fill="#3A3A3A"/>
</svg>
