<svg width="132" height="21" viewBox="0 0 132 21" fill="none" xmlns="http://www.w3.org/2000/svg">
<path d="M15.9168 12.9413C15.6578 13.2055 15.5388 13.5875 15.5978 13.9623L16.4867 19.1409C16.5617 19.5798 16.3857 20.024 16.0368 20.2776C15.6948 20.5408 15.2399 20.5723 14.8669 20.3618L10.4385 17.9304C10.2845 17.8441 10.1136 17.7978 9.93858 17.7925H9.66761C9.57362 17.8073 9.48164 17.8388 9.39765 17.8873L4.96823 20.3303C4.74926 20.446 4.50129 20.4871 4.25832 20.446C3.6664 20.3281 3.27145 19.7345 3.36844 19.1082L4.25832 13.9296C4.31731 13.5518 4.19833 13.1676 3.93936 12.8992L0.328833 9.21521C0.0268723 8.90681 -0.078114 8.44368 0.059868 8.02581C0.19385 7.609 0.535806 7.30481 0.948752 7.23639L5.9181 6.47749C6.29605 6.43644 6.62801 6.19436 6.79799 5.83649L8.9877 1.11049C9.03969 1.00523 9.10669 0.908394 9.18768 0.826294L9.27766 0.752615C9.32466 0.697881 9.37865 0.652621 9.43864 0.615782L9.54763 0.573679L9.71761 0.5H10.1386C10.5145 0.54105 10.8455 0.777876 11.0184 1.13154L13.2371 5.83649C13.3971 6.18067 13.7081 6.4196 14.067 6.47749L19.0364 7.23639C19.4563 7.29955 19.8073 7.60479 19.9463 8.02581C20.0773 8.44789 19.9643 8.91102 19.6563 9.21521L15.9168 12.9413Z" fill="#F6973F"/>
<path d="M43.9168 12.9413C43.6578 13.2055 43.5388 13.5875 43.5978 13.9623L44.4867 19.1409C44.5617 19.5798 44.3857 20.024 44.0368 20.2776C43.6948 20.5408 43.2399 20.5723 42.8669 20.3618L38.4385 17.9304C38.2845 17.8441 38.1136 17.7978 37.9386 17.7925H37.6676C37.5736 17.8073 37.4816 17.8388 37.3976 17.8873L32.9682 20.3303C32.7493 20.446 32.5013 20.4871 32.2583 20.446C31.6664 20.3281 31.2714 19.7345 31.3684 19.1082L32.2583 13.9296C32.3173 13.5518 32.1983 13.1676 31.9394 12.8992L28.3288 9.21521C28.0269 8.90681 27.9219 8.44368 28.0599 8.02581C28.1939 7.609 28.5358 7.30481 28.9488 7.23639L33.9181 6.47749C34.2961 6.43644 34.628 6.19436 34.798 5.83649L36.9877 1.11049C37.0397 1.00523 37.1067 0.908394 37.1877 0.826294L37.2777 0.752615C37.3247 0.697881 37.3786 0.652621 37.4386 0.615782L37.5476 0.573679L37.7176 0.5H38.1386C38.5145 0.54105 38.8455 0.777876 39.0184 1.13154L41.2371 5.83649C41.3971 6.18067 41.7081 6.4196 42.067 6.47749L47.0364 7.23639C47.4563 7.29955 47.8073 7.60479 47.9463 8.02581C48.0773 8.44789 47.9643 8.91102 47.6563 9.21521L43.9168 12.9413Z" fill="#F6973F"/>
<path d="M71.9168 12.9413C71.6578 13.2055 71.5388 13.5875 71.5978 13.9623L72.4867 19.1409C72.5617 19.5798 72.3857 20.024 72.0368 20.2776C71.6948 20.5408 71.2399 20.5723 70.8669 20.3618L66.4385 17.9304C66.2845 17.8441 66.1136 17.7978 65.9386 17.7925H65.6676C65.5736 17.8073 65.4816 17.8388 65.3976 17.8873L60.9682 20.3303C60.7493 20.446 60.5013 20.4871 60.2583 20.446C59.6664 20.3281 59.2714 19.7345 59.3684 19.1082L60.2583 13.9296C60.3173 13.5518 60.1983 13.1676 59.9394 12.8992L56.3288 9.21521C56.0269 8.90681 55.9219 8.44368 56.0599 8.02581C56.1939 7.609 56.5358 7.30481 56.9488 7.23639L61.9181 6.47749C62.2961 6.43644 62.628 6.19436 62.798 5.83649L64.9877 1.11049C65.0397 1.00523 65.1067 0.908394 65.1877 0.826294L65.2777 0.752615C65.3247 0.697881 65.3786 0.652621 65.4386 0.615782L65.5476 0.573679L65.7176 0.5H66.1386C66.5145 0.54105 66.8455 0.777876 67.0184 1.13154L69.2371 5.83649C69.3971 6.18067 69.7081 6.4196 70.067 6.47749L75.0364 7.23639C75.4563 7.29955 75.8073 7.60479 75.9463 8.02581C76.0773 8.44789 75.9643 8.91102 75.6563 9.21521L71.9168 12.9413Z" fill="#F6973F"/>
<path d="M99.9168 12.9413C99.6578 13.2055 99.5388 13.5875 99.5978 13.9623L100.487 19.1409C100.562 19.5798 100.386 20.024 100.037 20.2776C99.6948 20.5408 99.2399 20.5723 98.8669 20.3618L94.4385 17.9304C94.2845 17.8441 94.1136 17.7978 93.9386 17.7925H93.6676C93.5736 17.8073 93.4816 17.8388 93.3976 17.8873L88.9682 20.3303C88.7493 20.446 88.5013 20.4871 88.2583 20.446C87.6664 20.3281 87.2714 19.7345 87.3684 19.1082L88.2583 13.9296C88.3173 13.5518 88.1983 13.1676 87.9394 12.8992L84.3288 9.21521C84.0269 8.90681 83.9219 8.44368 84.0599 8.02581C84.1939 7.609 84.5358 7.30481 84.9488 7.23639L89.9181 6.47749C90.2961 6.43644 90.628 6.19436 90.798 5.83649L92.9877 1.11049C93.0397 1.00523 93.1067 0.908394 93.1877 0.826294L93.2777 0.752615C93.3247 0.697881 93.3786 0.652621 93.4386 0.615782L93.5476 0.573679L93.7176 0.5H94.1386C94.5145 0.54105 94.8455 0.777876 95.0184 1.13154L97.2371 5.83649C97.3971 6.18067 97.7081 6.4196 98.067 6.47749L103.036 7.23639C103.456 7.29955 103.807 7.60479 103.946 8.02581C104.077 8.44789 103.964 8.91102 103.656 9.21521L99.9168 12.9413Z" fill="#F6973F"/>
<path d="M127.917 12.9413C127.658 13.2055 127.539 13.5875 127.598 13.9623L128.487 19.1409C128.562 19.5798 128.386 20.024 128.037 20.2776C127.695 20.5408 127.24 20.5723 126.867 20.3618L122.439 17.9304C122.285 17.8441 122.114 17.7978 121.939 17.7925H121.668C121.574 17.8073 121.482 17.8388 121.398 17.8873L116.968 20.3303C116.749 20.446 116.501 20.4871 116.258 20.446C115.666 20.3281 115.271 19.7345 115.368 19.1082L116.258 13.9296C116.317 13.5518 116.198 13.1676 115.939 12.8992L112.329 9.21521C112.027 8.90681 111.922 8.44368 112.06 8.02581C112.194 7.609 112.536 7.30481 112.949 7.23639L117.918 6.47749C118.296 6.43644 118.628 6.19436 118.798 5.83649L120.988 1.11049C121.04 1.00523 121.107 0.908394 121.188 0.826294L121.278 0.752615C121.325 0.697881 121.379 0.652621 121.439 0.615782L121.548 0.573679L121.718 0.5H122.139C122.515 0.54105 122.845 0.777876 123.018 1.13154L125.237 5.83649C125.397 6.18067 125.708 6.4196 126.067 6.47749L131.036 7.23639C131.456 7.29955 131.807 7.60479 131.946 8.02581C132.077 8.44789 131.964 8.91102 131.656 9.21521L127.917 12.9413Z" fill="#F6973F"/>
</svg>
