<svg width="41" height="40" viewBox="0 0 41 40" fill="none" xmlns="http://www.w3.org/2000/svg">
<path d="M33.4033 2.34375C32.5497 2.34375 31.7496 2.57414 31.0595 2.97437V1.17188C31.0595 0.524687 30.5348 0 29.8876 0H11.1376C10.4904 0 9.96568 0.524687 9.96568 1.17188V2.98867C9.27014 2.57953 8.46084 2.34375 7.59717 2.34375C5.01248 2.34375 2.90967 4.44656 2.90967 7.03125C2.90967 9.00273 3.49389 10.9077 4.59912 12.5402C6.48068 15.3193 8.80092 16.0405 10.7208 16.8084C11.8279 19.5653 14.0665 21.7502 16.8591 22.7846L15.995 28.2812H15.8251C13.8866 28.2812 12.3095 29.8584 12.3095 31.7969V37.6562H11.1376C10.4904 37.6562 9.96576 38.1809 9.96576 38.8281C9.96576 39.4753 10.4904 40 11.1376 40H29.8876C30.5348 40 31.0595 39.4753 31.0595 38.8281C31.0595 38.1809 30.5348 37.6562 29.8876 37.6562H28.7158V31.7969C28.7158 29.8584 27.1387 28.2812 25.2001 28.2812H25.0303L24.1662 22.7847C26.9629 21.7487 29.204 19.5591 30.3094 16.7966C32.1231 16.0711 34.5005 15.3478 36.4014 12.5402C37.5066 10.9077 38.0908 9.00266 38.0908 7.03125C38.0908 4.44656 35.9879 2.34375 33.4033 2.34375ZM9.95701 13.9787C7.09967 12.8357 5.25342 10.1087 5.25342 7.03125C5.25342 5.73891 6.30482 4.6875 7.59717 4.6875C8.88951 4.6875 9.94092 5.73891 9.94092 7.03125C9.94092 7.11367 9.94959 7.19398 9.96576 7.27156V12.8906C9.96576 13.2673 9.986 13.6392 10.0247 14.0058L9.95701 13.9787ZM26.372 37.6562H14.6533V35.3125H26.372V37.6562ZM25.2001 30.625C25.8463 30.625 26.372 31.1507 26.372 31.7969V32.9688H14.6533V31.7969C14.6533 31.1507 15.179 30.625 15.8251 30.625C16.4609 30.625 23.7091 30.625 25.2001 30.625ZM18.3675 28.2812L19.1429 23.3487C19.5914 23.4071 20.0485 23.4375 20.5126 23.4375C20.9768 23.4375 21.4339 23.407 21.8823 23.3487L22.6578 28.2812H18.3675ZM28.7158 12.8906C28.7158 17.4138 25.0358 21.0938 20.5126 21.0938C15.9894 21.0938 12.3095 17.4138 12.3095 12.8906V7.03125H28.7158V12.8906ZM28.7158 4.6875H12.3095V2.34375H28.7158V4.6875ZM31.0433 13.9787L31.0017 13.9953C31.0397 13.6322 31.0594 13.2637 31.0594 12.8906V7.03125C31.0595 5.73891 32.1109 4.6875 33.4033 4.6875C34.6956 4.6875 35.747 5.73891 35.747 7.03125C35.747 10.1087 33.9008 12.8358 31.0433 13.9787Z" fill="#E89F71"/>
</svg>
