<svg width="41" height="40" viewBox="0 0 41 40" fill="none" xmlns="http://www.w3.org/2000/svg">
<g clip-path="url(#clip0_23_7794)">
<path d="M36.9625 15.9752C36.6996 7.12165 29.4162 0 20.5001 0C11.5839 0 4.30056 7.12165 4.03758 15.9752L2.85303 17.1598V25.1932L4.0295 26.3696V31.8431C4.0295 35.0435 6.63311 37.6471 9.83342 37.6471H11.2907C11.7763 39.0164 13.084 40 14.6177 40H16.9707C18.5054 40 19.8138 39.015 20.2987 37.6442C20.3659 37.6454 20.4333 37.6471 20.5001 37.6471C26.1815 37.6471 30.9352 33.5987 32.0282 28.2353H35.105L38.1471 25.1932V17.1598L36.9625 15.9752ZM20.5001 2.35294C27.4829 2.35294 33.297 7.44933 34.4206 14.1176H32.0282C30.9352 8.7542 26.1815 4.70588 20.5001 4.70588C14.8187 4.70588 10.0649 8.7542 8.97193 14.1176H6.57962C7.70315 7.44933 13.5173 2.35294 20.5001 2.35294ZM29.614 14.1176C25.811 14.1063 23.1247 14.3379 20.91 11.1004L19.8345 9.52839L18.9103 11.1938C17.5636 13.6204 15.75 14.1176 13.4413 14.1176H11.3861C12.4336 10.0629 16.1226 7.05882 20.5001 7.05882C24.8776 7.05882 28.5666 10.0629 29.614 14.1176ZM8.73538 25.8824H6.86973L5.20597 24.2186V18.1344L6.86973 16.4706H8.73538V25.8824ZM6.38244 31.8431V28.2353H8.96966C9.41256 30.4294 10.4722 32.4435 12.0421 34.0611C11.713 34.4127 11.4549 34.8311 11.2907 35.2941H9.83342C7.93052 35.2941 6.38244 33.746 6.38244 31.8431ZM16.9707 37.6471H14.6177C13.969 37.6471 13.4413 37.1194 13.4413 36.4706C13.4413 35.8219 13.969 35.2941 14.6177 35.2941H16.9707C17.6194 35.2941 18.1471 35.8219 18.1471 36.4706C18.1471 37.1194 17.6194 37.6471 16.9707 37.6471ZM29.9119 25.8824C29.9119 31.072 25.6897 35.2941 20.5001 35.2941C20.4326 35.2941 20.3646 35.2928 20.2967 35.2912C19.8103 33.9234 18.5033 32.9412 16.9707 32.9412C14.555 32.9465 14.5935 32.9291 14.2924 32.9568C12.2499 31.1665 11.0883 28.6166 11.0883 25.8824V16.4706H13.4413C15.5234 16.4706 18.0591 16.1273 20.0219 13.7384C22.6117 16.4524 25.7766 16.4706 28.6176 16.4706H29.9119V25.8824ZM35.7942 24.2186L34.1304 25.8824H32.2648V16.4706H34.1304L35.7942 18.1344V24.2186Z" fill="#E89F71"/>
</g>
<defs>
<clipPath id="clip0_23_7794">
<rect width="40" height="40" fill="white" transform="translate(0.5)"/>
</clipPath>
</defs>
</svg>
